HIERARCHY
ROOT Hips
{
	OFFSET 0.000000 0.000000 0.000000 
	CHANNELS 6 Xposition Yposition Zposition Zrotation Yrotation Xrotation
	JOINT LeftUpLeg
	{
		OFFSET 1.363060 -1.794630 0.839290 
		CHANNELS 3 Zrotation Yrotation Xrotation
		JOINT LeftLeg
		{
			OFFSET 2.448110 -6.726130 0.000000 
			CHANNELS 3 Zrotation Yrotation Xrotation
			JOINT LeftFoot
			{
				OFFSET 2.562200 -7.039590 0.000000 
				CHANNELS 3 Zrotation Yrotation Xrotation
				JOINT LeftToeBase
				{
					OFFSET 0.157640 -0.433110 2.322550 
					CHANNELS 3 Zrotation Yrotation Xrotation
					End Site
					{
						OFFSET 0.000000 0.000000 0.000000 
					}
				}
			}
		}
	}
	JOINT RightUpLeg
	{
		OFFSET -1.305520 -1.794630 0.839290 
		CHANNELS 3 Zrotation Yrotation Xrotation
		JOINT RightLeg
		{
			OFFSET -2.542530 -6.985550 0.000000 
			CHANNELS 3 Zrotation Yrotation Xrotation
			JOINT RightFoot
			{
				OFFSET -2.568260 -7.056230 0.000000 
				CHANNELS 3 Zrotation Yrotation Xrotation
				JOINT RightToeBase
				{
					OFFSET -0.164730 -0.452590 2.363150 
					CHANNELS 3 Zrotation Yrotation Xrotation
					End Site
					{
						OFFSET 0.000000 0.000000 0.000000 
					}
				}
			}
		}
	}
	JOINT Spine
	{
		OFFSET 0.028270 2.035590 -0.193380 
		CHANNELS 3 Zrotation Yrotation Xrotation
		JOINT Spine1
		{
			OFFSET 0.056720 2.048850 -0.042750 
			CHANNELS 3 Zrotation Yrotation Xrotation
			JOINT Neck1
			{
				OFFSET -0.054170 1.746240 0.172020 
				CHANNELS 3 Zrotation Yrotation Xrotation
				JOINT Head
				{
					OFFSET 0.104070 1.761360 -0.123970 
					CHANNELS 3 Zrotation Yrotation Xrotation
					End Site
					{
						OFFSET 0.000000 0.000000 0.000000 
					}
				}
			}
			JOINT LeftArm
			{
				OFFSET 3.362410 1.200890 -0.311210 
				CHANNELS 3 Zrotation Yrotation Xrotation
				JOINT LeftForeArm
				{
					OFFSET 4.983000 -0.000000 -0.000000 
					CHANNELS 3 Zrotation Yrotation Xrotation
					JOINT LeftHand
					{
						OFFSET 3.483560 -0.000000 -0.000000 
						CHANNELS 3 Zrotation Yrotation Xrotation
						JOINT LeftHandIndex1
						{
							OFFSET 0.715260 -0.000000 -0.000000 
							CHANNELS 3 Zrotation Yrotation Xrotation
							End Site
							{
								OFFSET 0.000000 0.000000 0.000000 
							}
						}
					}
				}
			}
			JOINT RightArm
			{
				OFFSET -3.136600 1.374050 -0.404650 
				CHANNELS 3 Zrotation Yrotation Xrotation
				JOINT RightForeArm
				{
					OFFSET -5.241900 -0.000000 -0.000000 
					CHANNELS 3 Zrotation Yrotation Xrotation
					JOINT RightHand
					{
						OFFSET -3.444170 -0.000000 -0.000000 
						CHANNELS 3 Zrotation Yrotation Xrotation
						JOINT RightHandIndex1
						{
							OFFSET -0.622530 -0.000000 -0.000000 
							CHANNELS 3 Zrotation Yrotation Xrotation
							End Site
							{
								OFFSET 0.000000 0.000000 0.000000 
							}
						}
					}
				}
			}
		}
	}
}
MOTION
Frames: 6
Frame Time: 0.041667
-8.717370 17.597916 -14.203203 0.330079 -16.266671 8.921982 -21.790404 -9.139983 -16.518414 2.662854 9.740918 30.992147 -0.284248 3.766306 -8.502554 0.599500 -4.956700 -13.785000 24.653019 12.597063 -19.327364 -3.657422 -11.341390 36.417565 0.267219 -4.705878 -11.902274 -0.443200 -4.271700 11.842400 1.205054 -1.852202 -2.279261 4.334457 -0.891038 -1.270548 1.784678 1.711811 19.304629 0.116100 0.431200 11.520800 -81.881063 -0.525881 29.180302 17.856899 -32.669125 -6.482591 -0.484248 -1.232743 2.922966 -7.125000 0.000000 0.000000 78.200498 -7.392179 28.735529 -38.914370 47.391702 -19.848025 0.281036 1.675657 28.235709 7.125000 0.000000 0.000000 
-8.730642 17.594799 -14.193450 0.200617 -16.069346 8.917252 -21.573830 -9.170163 -16.836808 2.761424 9.902130 31.483447 -0.248283 3.573103 -8.350043 0.585300 -4.898400 -13.619100 24.879457 12.356503 -19.269247 -3.650751 -11.324945 36.384040 0.253255 -4.655061 -11.948526 -0.443200 -4.271600 11.842200 1.241015 -1.879260 -2.270532 4.263475 -0.904392 -1.245946 1.351610 1.989898 19.771935 -0.183400 0.562300 11.833200 -82.105788 -0.280708 29.186313 17.913778 -32.737885 -6.510159 -0.489322 -1.196254 3.193807 -7.125000 0.000000 0.000000 78.209361 -7.378804 28.708252 -38.842990 47.347457 -19.788592 0.275583 1.670020 27.856639 7.125000 0.000000 0.000000 
-8.744918 17.591783 -14.183296 0.109227 -16.027230 8.941505 -21.453134 -9.069344 -17.258563 2.881091 10.094236 32.079554 -0.224458 3.476999 -8.361968 0.642700 -5.128900 -14.276500 25.020714 12.335742 -19.185737 -3.627168 -11.290595 36.277523 0.266348 -4.706238 -11.920931 -0.433300 -4.224200 11.708200 1.149964 -1.592752 -2.258672 3.887014 -0.754579 -1.363562 1.438558 1.761932 19.574542 -0.227400 0.523500 11.564500 -81.710191 -0.247405 30.056906 17.915411 -32.749495 -6.500413 -0.472155 -1.219020 2.862699 -7.125000 0.000000 0.000000 78.732595 -7.613256 28.039288 -38.875174 47.366947 -19.815230 0.273305 1.663594 27.613405 7.125000 0.000000 0.000000 
-8.756681 17.587460 -14.169321 -0.121022 -15.907895 8.937861 -21.171135 -8.972336 -17.519018 3.002171 10.288431 32.676757 -0.179110 3.294784 -8.429121 0.699600 -5.346400 -14.899200 25.338307 12.168924 -19.031343 -3.608468 -11.255215 36.188198 0.262105 -4.696315 -11.953309 -0.439500 -4.254100 11.792600 1.232590 -1.721238 -2.126731 4.018657 -0.832421 -1.089189 1.953660 2.112526 19.243834 0.269300 0.621300 11.289100 -82.110787 -0.756073 29.950632 17.806023 -32.601681 -6.430061 -0.492539 -1.210205 2.974658 -7.125000 0.000000 0.000000 78.323356 -7.039803 28.386496 -38.704437 47.279300 -19.698674 0.264459 1.679237 27.232777 7.125000 0.000000 0.000000 
-8.771058 17.583740 -14.156653 -0.182550 -15.749882 8.908689 -21.080024 -8.838500 -17.797898 3.123725 10.472273 33.261080 -0.123833 3.037501 -8.393529 0.694600 -5.327700 -14.845500 25.471391 11.999181 -18.925321 -3.596617 -11.235887 36.134518 0.255831 -4.680715 -11.995554 -0.447600 -4.292500 11.901100 1.227136 -1.709238 -1.996151 3.919618 -0.838849 -0.774904 2.247987 2.248876 19.027728 0.512200 0.674200 11.075900 -82.207636 -1.043514 30.205220 17.883863 -32.678874 -6.464097 -0.489288 -1.210085 3.056501 -7.125000 0.000000 0.000000 78.276005 -6.649290 28.399109 -38.633830 47.250856 -19.651692 0.253688 1.680685 26.884772 7.125000 0.000000 0.000000 
-8.781012 17.580221 -14.145493 -0.358306 -15.433458 8.927155 -20.832021 -8.767640 -18.193832 3.250931 10.665423 33.864245 -0.060396 2.701285 -8.200118 0.661400 -5.201300 -14.483600 25.733372 11.686091 -18.874965 -3.589912 -11.222457 36.105401 0.275402 -4.809147 -12.093806 -0.393400 -4.027200 11.153200 1.220788 -1.698673 -1.907724 3.668364 -0.836244 -0.582191 2.219186 2.343842 18.990621 0.514100 0.717000 10.992900 -82.254365 -1.206996 30.594921 17.958037 -32.753432 -6.493709 -0.488138 -1.211597 3.024962 -7.125000 0.000000 0.000000 78.305671 -6.578527 28.294556 -38.583643 47.233591 -19.620630 0.244678 1.681911 26.429742 7.125000 0.000000 0.000000 
